<?xml version="1.0" encoding="UTF-8"?>
<svg xmlns="http://www.w3.org/2000/svg" xmlns:xlink="http://www.w3.org/1999/xlink" width="498px" height="498px" viewBox="0 0 498 497" version="1.1">
<g id="surface1">
<rect x="0" y="0" width="498" height="497" style="fill:rgb(100%,100%,100%);fill-opacity:1;stroke:none;"/>
<path style=" stroke:none;fill-rule:evenodd;fill:rgb(0%,0%,0%);fill-opacity:1;" d="M 80.769531 209.804688 C 102.46875 209.804688 119.546875 227.25 119.546875 248.5 C 119.546875 269.871094 102.183594 287.195312 80.769531 287.195312 C 59.359375 287.195312 42 269.871094 42 248.5 C 42 227.121094 59.359375 209.804688 80.769531 209.804688 Z M 80.683594 256.609375 L 69.835938 220.695312 L 55.796875 266.675781 L 58.433594 266.675781 C 58.433594 266.675781 60.207031 258.675781 63.082031 253.898438 C 64.652344 251.308594 67.070312 249.1875 70.300781 249.242188 C 72.570312 249.289062 74.542969 250.527344 77.007812 253.964844 C 78.488281 256.027344 80.769531 261.269531 80.769531 261.269531 C 80.769531 261.269531 83.042969 256.03125 84.535156 253.964844 C 86.988281 250.527344 88.957031 249.289062 91.242188 249.242188 C 94.464844 249.1875 96.890625 251.308594 98.453125 253.90625 C 101.332031 258.675781 103.101562 266.675781 103.101562 266.675781 L 105.746094 266.675781 L 91.691406 220.695312 L 80.851562 256.609375 L 80.773438 256.671875 Z M 145.449219 261.492188 L 153.039062 235.714844 L 166.113281 235.714844 L 169.414062 246.730469 L 178.898438 235.664062 L 192.777344 235.664062 L 185.558594 261.46875 L 175.066406 261.503906 L 178.898438 248.195312 L 166.722656 261.503906 L 161.570312 261.503906 L 157.8125 247.265625 L 153.589844 261.503906 Z M 237.800781 235.664062 L 270.019531 235.714844 L 268.078125 244.039062 L 257.019531 244.039062 L 252.476562 261.492188 L 242.28125 261.503906 L 246.519531 244.113281 L 235.628906 244.113281 Z M 324.191406 235.714844 L 324.191406 241.699219 L 324.207031 241.699219 L 322.953125 246.691406 L 334.003906 246.691406 C 334.003906 246.691406 336.679688 246.226562 336.828125 243.777344 C 336.960938 241.625 334.945312 241.773438 334.945312 241.773438 L 324.191406 241.730469 L 324.191406 235.714844 L 340.832031 235.714844 C 340.832031 235.714844 347.957031 236.25 347.257812 242.398438 C 346.539062 248.542969 339.992188 250.503906 339.992188 250.503906 C 339.992188 250.503906 339.605469 250.894531 339.914062 251.128906 C 340.222656 251.347656 342.65625 251.8125 342.972656 254.113281 C 343.28125 256.417969 342.167969 258.089844 342.167969 258.789062 C 342.167969 259.476562 342.238281 260.859375 343.113281 261.464844 L 332.601562 261.464844 C 332.601562 261.464844 330.71875 261.179688 330.890625 259.246094 C 331.042969 257.335938 331.128906 255.652344 331.128906 255.652344 C 331.128906 255.652344 330.976562 253.652344 328.160156 253.886719 L 320.472656 253.808594 L 318.277344 261.488281 L 308.640625 261.488281 L 315.972656 235.710938 L 324.191406 235.710938 Z M 397.203125 235.714844 L 407.074219 235.714844 L 402.296875 254.410156 L 418.535156 254.410156 L 416.648438 261.515625 L 390.46875 261.515625 Z M 450.070312 235.691406 L 455.996094 261.503906 L 445.726562 261.503906 L 444.644531 257.035156 L 444.609375 256.9375 L 432.167969 256.9375 L 432.128906 256.988281 L 429.121094 261.492188 L 420.429688 261.503906 L 437.980469 235.691406 L 441.386719 243.300781 L 436.296875 250.8125 L 436.445312 250.878906 L 443.042969 250.878906 L 443.160156 250.863281 L 441.386719 243.300781 L 437.980469 235.691406 Z M 215.773438 241.425781 C 218.902344 241.425781 221.984375 242.96875 222.46875 245.21875 C 223.960938 252.394531 216.292969 255.464844 217.191406 255.007812 C 212.78125 257.195312 206.078125 256.496094 205.289062 251.972656 C 204.546875 247.621094 207.910156 243.339844 210.734375 242.316406 C 212.675781 241.625 214.28125 241.320312 215.773438 241.425781 L 215.796875 241.359375 L 215.832031 234.667969 C 213.804688 234.710938 211.523438 234.960938 209.714844 235.3125 C 201.992188 236.792969 192.242188 243.800781 193.964844 252.675781 C 195.410156 260.171875 205.605469 264.203125 217.035156 261.996094 C 227.746094 259.949219 234.765625 251.710938 233.253906 244.398438 C 231.796875 237.332031 223.417969 234.667969 215.832031 234.667969 L 215.832031 240.457031 Z M 290.695312 241.425781 C 293.824219 241.425781 296.914062 242.96875 297.375 245.21875 C 298.882812 252.394531 291.214844 255.464844 292.128906 255.007812 C 287.707031 257.195312 281 256.496094 280.214844 251.972656 C 279.457031 247.621094 282.824219 243.339844 285.664062 242.316406 C 287.597656 241.625 289.214844 241.320312 290.695312 241.425781 L 290.71875 241.359375 L 290.761719 234.667969 C 288.742188 234.710938 286.453125 234.960938 284.640625 235.3125 C 276.914062 236.792969 267.15625 243.800781 268.875 252.675781 C 270.324219 260.171875 280.53125 264.203125 291.945312 261.996094 C 302.671875 259.949219 309.6875 251.710938 308.179688 244.398438 C 306.730469 237.332031 298.34375 234.667969 290.761719 234.667969 L 290.761719 240.457031 Z M 372.144531 241.359375 C 375.273438 241.53125 378.335938 242.964844 378.8125 245.21875 C 380.308594 252.394531 372.628906 255.464844 373.558594 255.007812 C 369.140625 257.195312 362.4375 256.496094 361.648438 251.972656 C 360.890625 247.621094 364.257812 243.339844 367.089844 242.316406 C 369.425781 241.476562 370.328125 241.238281 372.144531 241.359375 L 372.191406 234.667969 C 370.167969 234.707031 367.894531 234.957031 366.0625 235.308594 C 358.351562 236.792969 348.601562 243.800781 350.3125 252.671875 C 351.757812 260.167969 361.964844 264.203125 373.378906 261.996094 C 384.09375 259.945312 391.121094 251.710938 389.601562 244.394531 C 388.152344 237.332031 379.765625 234.667969 372.191406 234.667969 L 372.191406 240.453125 Z M 372.144531 241.359375 "/>
</g>
</svg>
